<svg width="142" height="142" viewBox="0 0 142 142" fill="none" xmlns="http://www.w3.org/2000/svg">
<rect width="142" height="142" rx="20" fill="#593EEC"/>
<circle cx="70.4999" cy="71.1027" r="43.1809" fill="white"/>
<path d="M63.2361 52.7982C65.0265 45.1091 75.9735 45.1091 77.7639 52.7982V52.7982C78.6046 56.4089 81.97 58.854 85.6638 58.5378V58.5378C93.5298 57.8645 96.9126 68.2757 90.1531 72.3545V72.3545C86.9789 74.2699 85.6935 78.2261 87.1356 81.6415V81.6415C90.2067 88.9144 81.3504 95.3489 75.3824 90.1807V90.1807C72.5799 87.7537 68.4201 87.7537 65.6176 90.1807V90.1807C59.6496 95.3489 50.7933 88.9144 53.8644 81.6415V81.6415C55.3065 78.2261 54.0211 74.2699 50.8469 72.3545V72.3545C44.0874 68.2757 47.4702 57.8645 55.3362 58.5378V58.5378C59.03 58.854 62.3954 56.4089 63.2361 52.7982V52.7982Z" fill="#593EEC"/>
</svg>
