<svg width="24" height="22" viewBox="0 0 24 22" fill="none" xmlns="http://www.w3.org/2000/svg">
<path d="M0.967726 10.8222L11.4261 0.371439C11.5014 0.295989 11.5909 0.236129 11.6893 0.195287C11.7878 0.154445 11.8934 0.133423 12 0.133423C12.1066 0.133423 12.2121 0.154445 12.3106 0.195287C12.409 0.236129 12.4985 0.295989 12.5738 0.371439L23.0322 10.8222C23.3369 11.1269 23.5095 11.5408 23.5095 11.9724C23.5095 12.8687 22.7808 13.5974 21.8845 13.5974H20.7826V21.0546C20.7826 21.5041 20.4195 21.8671 19.9701 21.8671H13.625V16.1796H10.7812V21.8671H4.02983C3.58042 21.8671 3.21733 21.5041 3.21733 21.0546V13.5974H2.11538C1.68374 13.5974 1.26987 13.4273 0.965187 13.1201C0.33296 12.4853 0.33296 11.457 0.967726 10.8222Z" fill="#593EEC"/>
</svg>
