<svg width="21" height="25" viewBox="0 0 21 25" fill="none" xmlns="http://www.w3.org/2000/svg">
<path d="M16.125 2.25H19.5C19.7984 2.25 20.0845 2.36853 20.2955 2.5795C20.5065 2.79048 20.625 3.07663 20.625 3.375V23.625C20.625 23.9234 20.5065 24.2095 20.2955 24.4205C20.0845 24.6315 19.7984 24.75 19.5 24.75H1.5C1.20163 24.75 0.915483 24.6315 0.704505 24.4205C0.493526 24.2095 0.375 23.9234 0.375 23.625V3.375C0.375 3.07663 0.493526 2.79048 0.704505 2.5795C0.915483 2.36853 1.20163 2.25 1.5 2.25H4.875V0H7.125V2.25H13.875V0H16.125V2.25ZM4.875 9V11.25H16.125V9H4.875ZM4.875 13.5V15.75H16.125V13.5H4.875Z" fill="#C1C1C1"/>
</svg>
