<svg width="23" height="23" viewBox="0 0 23 23" fill="none" xmlns="http://www.w3.org/2000/svg">
<path fill-rule="evenodd" clip-rule="evenodd" d="M6.66667 5.45833C6.66667 4.17645 7.17589 2.94708 8.08232 2.04065C8.98874 1.13422 10.2181 0.625 11.5 0.625C12.7819 0.625 14.0113 1.13422 14.9177 2.04065C15.8241 2.94708 16.3333 4.17645 16.3333 5.45833C16.3333 6.74021 15.8241 7.96959 14.9177 8.87602C14.0113 9.78244 12.7819 10.2917 11.5 10.2917C10.2181 10.2917 8.98874 9.78244 8.08232 8.87602C7.17589 7.96959 6.66667 6.74021 6.66667 5.45833ZM6.66667 12.7083C5.06432 12.7083 3.5276 13.3449 2.39456 14.4779C1.26153 15.6109 0.625 17.1477 0.625 18.75C0.625 19.7114 1.00692 20.6334 1.68674 21.3133C2.36656 21.9931 3.28859 22.375 4.25 22.375H18.75C19.7114 22.375 20.6334 21.9931 21.3133 21.3133C21.9931 20.6334 22.375 19.7114 22.375 18.75C22.375 17.1477 21.7385 15.6109 20.6054 14.4779C19.4724 13.3449 17.9357 12.7083 16.3333 12.7083H6.66667Z" fill="#C1C1C1"/>
</svg>
