<svg width="11" height="13" viewBox="0 0 11 13" fill="none" xmlns="http://www.w3.org/2000/svg">
<path d="M3.05556 7.8C2.88241 7.8 2.73737 7.7376 2.62044 7.6128C2.50352 7.488 2.44485 7.33373 2.44444 7.15C2.44444 6.96583 2.50311 6.81157 2.62044 6.6872C2.73778 6.56283 2.88281 6.50043 3.05556 6.5C3.2287 6.5 3.37394 6.5624 3.49128 6.6872C3.60861 6.812 3.66707 6.96627 3.66667 7.15C3.66667 7.33417 3.608 7.48865 3.49067 7.61345C3.37333 7.73825 3.2283 7.80043 3.05556 7.8ZM5.5 7.8C5.32685 7.8 5.18181 7.7376 5.06489 7.6128C4.94796 7.488 4.8893 7.33373 4.88889 7.15C4.88889 6.96583 4.94756 6.81157 5.06489 6.6872C5.18222 6.56283 5.32726 6.50043 5.5 6.5C5.67315 6.5 5.81839 6.5624 5.93572 6.6872C6.05306 6.812 6.11152 6.96627 6.11111 7.15C6.11111 7.33417 6.05244 7.48865 5.93511 7.61345C5.81778 7.73825 5.67274 7.80043 5.5 7.8ZM7.94444 7.8C7.7713 7.8 7.62626 7.7376 7.50933 7.6128C7.39241 7.488 7.33374 7.33373 7.33333 7.15C7.33333 6.96583 7.392 6.81157 7.50933 6.6872C7.62667 6.56283 7.7717 6.50043 7.94444 6.5C8.11759 6.5 8.26283 6.5624 8.38017 6.6872C8.4975 6.812 8.55596 6.96627 8.55555 7.15C8.55555 7.33417 8.49689 7.48865 8.37955 7.61345C8.26222 7.73825 8.11718 7.80043 7.94444 7.8ZM1.22222 13C0.886111 13 0.598481 12.8728 0.359333 12.6184C0.120185 12.3641 0.000407407 12.0579 0 11.7V2.6C0 2.2425 0.119778 1.93657 0.359333 1.6822C0.598889 1.42783 0.886518 1.30043 1.22222 1.3H1.83333V0.65C1.83333 0.465833 1.892 0.311567 2.00933 0.1872C2.12667 0.0628334 2.2717 0.000433333 2.44444 0C2.61759 0 2.76283 0.0624001 2.88017 0.1872C2.9975 0.312 3.05596 0.466267 3.05556 0.65V1.3H7.94444V0.65C7.94444 0.465833 8.00311 0.311567 8.12044 0.1872C8.23778 0.0628334 8.38281 0.000433333 8.55555 0C8.7287 0 8.87394 0.0624001 8.99128 0.1872C9.10861 0.312 9.16707 0.466267 9.16667 0.65V1.3H9.77778C10.1139 1.3 10.4017 1.4274 10.6413 1.6822C10.8808 1.937 11.0004 2.24293 11 2.6V11.7C11 12.0575 10.8804 12.3636 10.6413 12.6184C10.4021 12.8732 10.1143 13.0004 9.77778 13H1.22222ZM1.22222 11.7H9.77778V5.2H1.22222V11.7Z" fill="#171717"/>
</svg>
