<svg width="25" height="25" viewBox="0 0 25 25" fill="none" xmlns="http://www.w3.org/2000/svg">
<circle cx="12.5" cy="12.5" r="12.5" fill="#593EEC"/>
<path d="M17.2678 8.53145C16.0203 7.90742 14.375 7.57812 12.5 7.57812C10.625 7.57812 8.97969 7.90742 7.73223 8.53145C6.44258 9.17598 5.70312 10.11 5.70312 11.0938V13.9062C5.70312 14.89 6.44258 15.824 7.73223 16.4686C8.97969 17.0926 10.6279 17.4219 12.5 17.4219C14.3721 17.4219 16.0203 17.0926 17.2678 16.4686C18.5568 15.824 19.2969 14.89 19.2969 13.9062V11.0938C19.2969 10.11 18.5574 9.17598 17.2678 8.53145ZM8.36152 9.78887C9.39922 9.27031 10.8688 8.98438 12.5 8.98438C14.1313 8.98438 15.6008 9.27031 16.6385 9.78887C17.4107 10.175 17.8906 10.6754 17.8906 11.0938C17.8906 11.5121 17.4107 12.0125 16.6385 12.3986C15.6008 12.9172 14.1313 13.2031 12.5 13.2031C10.8688 13.2031 9.39922 12.9172 8.36152 12.3986C7.58926 12.0125 7.10938 11.5121 7.10938 11.0938C7.10938 10.6754 7.58926 10.175 8.36152 9.78887ZM15.5469 15.6277C14.782 15.8384 13.9958 15.9622 13.2031 15.9969V14.5906C13.9929 14.5584 14.7778 14.4503 15.5469 14.2678V15.6277ZM9.45312 14.2707C10.2222 14.4532 11.0071 14.5613 11.7969 14.5936V15.9998C11.0042 15.9651 10.218 15.8413 9.45312 15.6307V14.2707ZM7.10938 13.9062V13.2934C7.30894 13.4276 7.51699 13.5487 7.73223 13.6561C7.83418 13.707 7.93965 13.7557 8.04688 13.8025V15.0371C7.46094 14.682 7.10938 14.2643 7.10938 13.9062ZM16.9531 15.0371V13.8025C17.0604 13.7557 17.1658 13.707 17.2678 13.6561C17.483 13.5487 17.6911 13.4276 17.8906 13.2934V13.9062C17.8906 14.2643 17.5391 14.682 16.9531 15.0371Z" fill="white"/>
</svg>
