<svg width="65" height="65" viewBox="0 0 65 65" fill="none" xmlns="http://www.w3.org/2000/svg">
<circle cx="32.2766" cy="32.2765" r="26.3537" transform="rotate(-15 32.2766 32.2765)" fill="#F2F3FF"/>
<path d="M43 27.6416C43 29.0861 42.7155 30.5165 42.1627 31.8511C41.6099 33.1857 40.7996 34.3983 39.7782 35.4198C38.7567 36.4412 37.5441 37.2515 36.2095 37.8043C34.8749 38.3571 33.4445 38.6416 32 38.6416C30.5555 38.6416 29.1251 38.3571 27.7905 37.8043C26.4559 37.2515 25.2433 36.4412 24.2218 35.4198C23.2004 34.3983 22.3901 33.1857 21.8373 31.8511C21.2845 30.5165 21 29.0861 21 27.6416C21 24.7242 22.1589 21.9263 24.2218 19.8634C26.2847 17.8005 29.0826 16.6416 32 16.6416C34.9174 16.6416 37.7153 17.8005 39.7782 19.8634C41.8411 21.9263 43 24.7242 43 27.6416Z" fill="#D5D4FF"/>
<path d="M30.6936 23.574C31.0915 21.8653 33.5241 21.8653 33.922 23.574V23.574C34.1088 24.3764 34.8567 24.9197 35.6776 24.8494V24.8494C37.4256 24.6998 38.1773 27.0134 36.6752 27.9198V27.9198C35.9698 28.3455 35.6841 29.2246 36.0046 29.9836V29.9836C36.6871 31.5998 34.719 33.0297 33.3928 31.8812V31.8812C32.77 31.3419 31.8456 31.3419 31.2228 31.8812V31.8812C29.8966 33.0297 27.9285 31.5998 28.611 29.9836V29.9836C28.9315 29.2246 28.6458 28.3455 27.9404 27.9198V27.9198C26.4383 27.0134 27.1901 24.6998 28.9381 24.8494V24.8494C29.7589 24.9197 30.5068 24.3764 30.6936 23.574V23.574Z" fill="#7E71FF"/>
<path d="M25.1568 38.6416L24.5956 40.7646C23.6657 44.2855 23.2008 46.0459 23.8212 47.0091C24.0389 47.3471 24.3306 47.6174 24.6697 47.7972C25.6351 48.3072 27.1277 47.5007 30.1114 45.8877C31.1035 45.3501 31.601 45.0828 32.1282 45.0244C32.3241 45.0026 32.5216 45.0026 32.7175 45.0244C33.2447 45.0828 33.7407 45.3516 34.7343 45.8877C37.718 47.5007 39.2106 48.3072 40.1761 47.7972C40.5152 47.6174 40.8069 47.3471 41.0245 47.0091C41.6465 46.0459 41.18 44.2855 40.2501 40.7646L39.6889 38.6416C37.5655 40.2036 35.0259 41.0406 32.4229 41.0365C29.8198 41.0407 27.2802 40.2037 25.1568 38.6416Z" fill="#7E71FF"/>
</svg>
